<svg xmlns="http://www.w3.org/2000/svg" viewBox="0 0 93.86 93.34"><defs><style>.cls-1{fill:#316f9e;}.cls-2{fill:none;stroke:#2a4254;stroke-miterlimit:10;stroke-width:2.23px;}.cls-3{fill:#5694c3;}.cls-4{fill:#282828;}</style></defs><title>close</title><g id="圖層_2" data-name="圖層 2"><g id="圖層_1-2" data-name="圖層 1"><path class="cls-1" d="M36.51,76.3c-1.41-1.41-4.22-1.11-5.85-.76.45-2.81,1-9.3-2.44-12.76-4.5-4.5-14.1-2.18-14.1-2.18s-2.32,9.6,2.18,14.1c3.46,3.46,10,2.88,12.76,2.44-.35,1.63-.66,4.43.76,5.85,2.12,2.12,7.12.43,7.12.43S38.59,78.38,36.51,76.3Zm-17-11.78a1,1,0,1,1,1.41,0A1,1,0,0,1,19.49,64.52Z"/><line class="cls-2" x1="0.79" y1="92.29" x2="79.04" y2="14.04"/><path class="cls-3" d="M56.77,18.85s-1.65,5,.44,7.13c1.41,1.41,4.21,1.1,5.85.76-.45,2.81-1,9.3,2.44,12.76,4.5,4.5,14.1,2.18,14.1,2.18s2.32-9.6-2.18-14.1c-3.46-3.46-10-2.88-12.76-2.44.35-1.63.66-4.43-.76-5.85C61.8,17.19,56.77,18.85,56.77,18.85Zm18.93,16a1,1,0,1,1,0,1.41A1,1,0,0,1,75.7,34.86Z"/><path class="cls-4" d="M92.68.92S77.5-1.62,72.6,3.27C68.27,7.61,71.82,15,76.53,15.4a5,5,0,0,1-2.86,1.27c-.33,2.5.76,3.59,3.25,3.25a5,5,0,0,1,1.27-2.87C78.61,21.71,86,25.32,90.32,21,95.22,16.1,92.68.92,92.68.92Z"/><path class="cls-1" d="M72.44,61.6C71,63,71.33,65.82,71.68,67.45c-2.81-.45-9.3-1-12.76,2.44-4.5,4.5-2.18,14.1-2.18,14.1s9.6,2.32,14.1-2.18c3.46-3.46,2.88-10,2.44-12.76,1.63.35,4.43.66,5.85-.76,2.12-2.12.43-7.12.43-7.12S74.53,59.51,72.44,61.6Zm-11.78,17a1,1,0,1,1,0-1.41A1,1,0,0,1,60.66,78.61Z"/><line class="cls-2" x1="93.07" y1="92.55" x2="14.83" y2="14.3"/><path class="cls-3" d="M14.13,42.18s5,1.65,7.13-.44c1.41-1.41,1.1-4.21.76-5.85,2.81.45,9.3,1,12.76-2.44C39.28,29,37,19.36,37,19.36s-9.6-2.32-14.1,2.18C19.4,25,20,31.49,20.42,34.3c-1.63-.35-4.43-.66-5.85.76C12.48,37.15,14.13,42.18,14.13,42.18Zm16-18.93a1,1,0,1,1,1.41,0A1,1,0,0,1,30.15,23.25Z"/><path class="cls-4" d="M1.71.66S-.83,15.84,4.06,20.73c4.33,4.33,11.73.78,12.13-3.92a5,5,0,0,1,1.27,2.86c2.5.33,3.59-.76,3.25-3.25a5,5,0,0,1-2.87-1.27C22.5,14.73,26.1,7.33,21.78,3,16.89-1.88,1.71.66,1.71.66Z"/></g></g></svg>