<svg xmlns="http://www.w3.org/2000/svg" viewBox="0 0 147.71 157.77"><defs><style>.cls-1{fill:#435868;}.cls-2{fill:#316f9e;}.cls-3{fill:none;stroke:#2a4254;stroke-miterlimit:10;stroke-width:2.23px;}.cls-4{fill:#a1d2f6;}.cls-5{fill:#5694c3;}.cls-6{fill:#2a4254;}.cls-7{fill:#e58a58;}.cls-8{fill:#f8f8f8;}.cls-9{fill:#ffe245;}.cls-10{fill:#282828;}</style></defs><title>element-02</title><g id="圖層_2" data-name="圖層 2"><g id="圖層_1-2" data-name="圖層 1"><path class="cls-1" d="M69.13,106.79S46.89,96.48,38.71,91.94c-9.29-5.14-27.09-12-30.81-8.44s7.6,21.79,18.63,34.67,33.9,30.33,33.9,30.33Z"/><path class="cls-2" d="M30.28,47.51c-2,0-3.77,2.2-4.68,3.6-1.67-2.3-5.85-7.3-10.75-7.3-6.36,0-11.51,8.43-11.51,8.43s5.15,8.43,11.51,8.43c4.9,0,9.08-5,10.75-7.3.91,1.4,2.66,3.6,4.68,3.6,3,0,5.34-4.73,5.34-4.73S33.23,47.51,30.28,47.51ZM9.92,51.21a1,1,0,1,1,1-1A1,1,0,0,1,9.92,51.21Z"/><line class="cls-3" x1="16.7" y1="129.58" x2="16.7" y2="18.92"/><path class="cls-4" d="M0,67.27S2.39,72,5.35,72c2,0,3.76-2.2,4.67-3.6,1.67,2.3,5.85,7.3,10.75,7.3,6.36,0,11.51-8.43,11.51-8.43s-5.15-8.43-11.51-8.43c-4.9,0-9.08,5-10.75,7.3-.91-1.4-2.66-3.6-4.67-3.6C2.39,62.54,0,67.27,0,67.27Zm24.71-2.06a1,1,0,1,1,1,1A1,1,0,0,1,24.71,65.21Z"/><path class="cls-5" d="M0,37.21s2.39,4.73,5.35,4.73c2,0,3.76-2.2,4.67-3.6,1.67,2.3,5.85,7.3,10.75,7.3,6.36,0,11.51-8.43,11.51-8.43s-5.15-8.43-11.51-8.43c-4.9,0-9.08,5-10.75,7.3-.91-1.4-2.66-3.6-4.67-3.6C2.39,32.48,0,37.21,0,37.21Zm24.71-2.06a1,1,0,1,1,1,1A1,1,0,0,1,24.71,35.15Z"/><path class="cls-6" d="M116.8,73c-4.35-7.89-7.49-13.5-7.49-14.55,0-17.28-18.42-30.85-35.71-30.85A31.29,31.29,0,0,0,47.71,41.33,31.25,31.25,0,0,1,51.78,69l-.6.49C70.31,86.21,93.63,82,116.8,73Z"/><path class="cls-1" d="M116.8,73c-23.17,9-46.49,13.26-65.62-3.46-20.16,16-35.35,48.6-40.24,88.23H147.71a194.61,194.61,0,0,0-8.35-37.65C134.33,105,124,85.91,116.8,73Z"/><polygon class="cls-7" points="51.94 36.27 29.09 31.96 69.64 47.82 51.94 36.27"/><polygon class="cls-6" points="51.94 36.27 29.09 31.96 60.82 31.96 51.94 36.27"/><path class="cls-8" d="M106.71,146c-7-21-3.57-47-12-59.79C94,85.07,93.22,84,92.46,82.93a2.91,2.91,0,0,1,.73-.14,47,47,0,0,0,24.92-7.38c-2.9-5.28-5.39-9.73-7-12.77l-5.11-3L95.13,55.72,82.88,72.38a27.81,27.81,0,0,0-18-6.39A27,27,0,0,0,42.45,77.91c-19.22,29.49-27.32,53.31-30.74,79.81h100C110.71,153.68,108,149.76,106.71,146Z"/><path class="cls-9" d="M101.27,24.07l-5,2.3L94.63,20,91.17,6.7l-9.79,9.66-4.27,4.21-2.72-4.06L69.58,29.28S73,32,83.47,34.91s15.46,2.61,15.46,2.61Z"/><path class="cls-9" d="M109.31,58.4a26.86,26.86,0,0,0-6.72-17.32l-5.94,10.3L89,64.57H112.2C110.41,61.24,109.31,59,109.31,58.4Z"/><path class="cls-10" d="M17.07,0S4.54,8.94,4.54,15.86c0,6.13,7.74,8.85,11.35,5.8a5,5,0,0,1-1.12,2.92c1.53,2,3.07,2,4.6,0a5,5,0,0,1-1.13-2.93c3.58,3,11.36.32,11.36-5.79C29.6,8.94,17.07,0,17.07,0Z"/></g></g></svg>