<svg xmlns="http://www.w3.org/2000/svg" viewBox="0 0 147.71 157.77"><defs><style>.cls-1{fill:#435868;}.cls-2{fill:#316f9e;}.cls-3{fill:none;stroke:#2a4254;stroke-miterlimit:10;stroke-width:2.23px;}.cls-4{fill:#a1d2f6;}.cls-5{fill:#5694c3;}.cls-6{fill:#2a4254;}.cls-7{fill:#e58a58;}.cls-8{fill:#f8f8f8;}.cls-9{fill:#ffe245;}.cls-10{fill:#282828;}</style></defs><title>資產 1</title><g id="圖層_2" data-name="圖層 2"><g id="圖層_1-2" data-name="圖層 1"><path class="cls-1" d="M87.28,148.5s22.87-17.45,33.9-30.33,22.35-31.11,18.63-34.67S118.29,86.8,109,91.94c-8.18,4.54-30.42,14.85-30.42,14.85Z"/><path class="cls-2" d="M112.09,52.24S114.43,57,117.43,57c2,0,3.77-2.2,4.68-3.6,1.67,2.3,5.85,7.3,10.75,7.3,6.36,0,11.51-8.43,11.51-8.43s-5.15-8.43-11.51-8.43c-4.9,0-9.08,5-10.75,7.3-.91-1.4-2.68-3.6-4.68-3.6C114.48,47.51,112.09,52.24,112.09,52.24Zm24.7-2a1,1,0,1,1,1,1A1,1,0,0,1,136.79,50.21Z"/><line class="cls-3" x1="131.01" y1="18.92" x2="131.01" y2="129.58"/><path class="cls-4" d="M142.36,62.54c-2,0-3.76,2.2-4.67,3.6-1.67-2.3-5.85-7.3-10.75-7.3-6.36,0-11.51,8.43-11.51,8.43s5.15,8.43,11.51,8.43c4.9,0,9.08-5,10.75-7.3.91,1.4,2.67,3.6,4.67,3.6,3,0,5.35-4.73,5.35-4.73S145.32,62.54,142.36,62.54ZM122,66.21a1,1,0,1,1,1-1A1,1,0,0,1,122,66.21Z"/><path class="cls-5" d="M142.36,32.48c-2,0-3.76,2.2-4.67,3.6-1.67-2.3-5.85-7.3-10.75-7.3-6.36,0-11.51,8.43-11.51,8.43s5.15,8.43,11.51,8.43c4.9,0,9.08-5,10.75-7.3.91,1.4,2.67,3.6,4.67,3.6,3,0,5.35-4.73,5.35-4.73S145.32,32.48,142.36,32.48ZM122,36.15a1,1,0,1,1,1-1A1,1,0,0,1,122,36.15Z"/><path class="cls-6" d="M96.53,69.49l-.6-.49A31.25,31.25,0,0,1,100,41.33,31.29,31.29,0,0,0,74.11,27.6C56.82,27.6,38.4,41.17,38.4,58.45c0,1.05-3.14,6.66-7.49,14.55C54.08,82,77.4,86.21,96.53,69.49Z"/><path class="cls-1" d="M8.35,120.12A194.61,194.61,0,0,0,0,157.77H136.77c-4.89-39.63-20.08-72.23-40.24-88.23C77.4,86.26,54.08,82,30.91,73,23.76,85.91,13.38,105,8.35,120.12Z"/><polygon class="cls-7" points="78.07 47.82 118.62 31.96 95.77 36.27 78.07 47.82"/><polygon class="cls-6" points="86.89 31.96 118.62 31.96 95.77 36.27 86.89 31.96"/><path class="cls-8" d="M36,157.72H136c-3.42-26.5-11.52-50.32-30.74-79.81A27,27,0,0,0,82.83,66a27.81,27.81,0,0,0-18,6.39L52.58,55.72,41.71,59.64l-5.11,3c-1.61,3-4.1,7.49-7,12.77a47,47,0,0,0,24.92,7.38,2.91,2.91,0,0,1,.73.14C54.49,84,53.74,85.07,53,86.21,44.57,99,48,125,41,146,39.74,149.76,37,153.68,36,157.72Z"/><path class="cls-9" d="M48.78,37.52s4.95.3,15.46-2.61,13.89-5.63,13.89-5.63L73.32,16.51,70.6,20.57l-4.27-4.21L56.54,6.7,53.08,20l-1.64,6.37-5-2.3Z"/><path class="cls-9" d="M35.51,64.57H58.68L51.06,51.38l-5.94-10.3A26.86,26.86,0,0,0,38.4,58.4C38.4,59,37.3,61.24,35.51,64.57Z"/><path class="cls-10" d="M118.11,15.86c0,6.11,7.78,8.79,11.36,5.79a5,5,0,0,1-1.13,2.93c1.53,2,3.07,2,4.6,0a5,5,0,0,1-1.12-2.92c3.61,3,11.35.33,11.35-5.8C143.17,8.94,130.64,0,130.64,0S118.11,8.94,118.11,15.86Z"/></g></g></svg>